####
#
# OBJ File Generated by Meshlab
#
####
# Object floor.obj
#
# Vertices: 6
# Faces: 2
#
####
mtllib ./floor.obj.mtl

vn 0.000000 0.000000 1.000000
v -3.500000 -3.500000 -0.111550
vn 0.000000 0.000000 1.000000
v 3.500000 -3.500000 -0.111550
vn 0.000000 0.000000 1.000000
v 3.500000 3.500000 -0.111550
vn 0.000000 0.000000 1.000000
v 3.500000 3.500000 -0.111550
vn 0.000000 0.000000 1.000000
v -3.500000 3.500000 -0.111550
vn 0.000000 0.000000 1.000000
v -3.500000 -3.500000 -0.111550
# 6 vertices, 0 vertices normals


usemtl material_0
vt 0.000000 0.000000
vt 1.000000 0.000000
vt 1.000000 1.000000
f 1/1/1 2/2/2 3/3/3
vt 0.000000 1.000000
f 4/3/4 5/4/5 6/1/6
# 2 faces, 4 coords texture

# End of File
