# Blender v2.83.1 OBJ File: 'scene.blend'
# www.blender.org
mtllib plane.mtl
o Plane.006
v 10.294768 11.241096 -0.891550
v -10.294770 11.241094 -0.891550
v -10.294768 -11.241096 -0.891550
v -10.294768 -11.241096 -0.891550
v 10.294770 -11.241094 -0.891550
v 10.294768 11.241096 -0.891550
vt 0.000000 0.000000
vt 1.000000 0.000000
vt 1.000000 1.000000
vt 1.000000 1.000000
vt 0.000000 1.000000
vt 0.000000 0.000000
vn -0.0000 0.0000 1.0000
usemtl mat_wood.003
s off
f 1/1/1 2/2/1 3/3/1
f 4/4/1 5/5/1 6/6/1
