# Blender v2.83.1 OBJ File: 'scene.blend'
# www.blender.org
mtllib table.mtl
o table
v -0.416858 -0.948421 -0.117272
v -0.416858 -0.948421 -0.046252
v 0.446947 -0.948421 -0.046252
v 0.446947 -0.948421 -0.117272
v -0.112212 -0.948421 -0.117272
v -0.188476 -0.948421 -0.117272
v 0.459201 -0.954256 -0.110070
v 0.459201 -0.954256 -0.053454
v 0.459201 -1.000125 -0.053454
v 0.459201 -1.000125 -0.110070
v 0.446947 -1.005960 -0.117272
v 0.446947 -1.005960 -0.046252
v -0.416858 -1.005960 -0.046252
v -0.416858 -1.005960 -0.117272
v -0.188476 -1.005960 -0.117272
v -0.112212 -1.005960 -0.117272
v -0.479795 -0.946507 -0.119635
v -0.479795 -1.007874 -0.119635
v -0.479795 -1.007874 -0.046416
v -0.479795 -0.946507 -0.046416
v 0.467262 0.994365 -0.045391
v 0.467262 -1.114128 -0.045391
v -0.502396 -1.114128 -0.045391
v -0.502395 0.994365 -0.045391
v 0.467262 0.994364 0.001342
v -0.502395 0.994365 0.001342
v -0.502396 -1.114128 0.001342
v 0.467262 -1.114129 0.001342
v 0.487289 1.037914 -0.038266
v 0.487289 1.037913 -0.005784
v 0.487289 -1.157677 -0.005783
v 0.487289 -1.157677 -0.038266
v -0.522423 -1.157677 -0.005783
v -0.522423 -1.157677 -0.038266
v -0.522423 1.037914 -0.005784
v -0.522422 1.037914 -0.038266
v -0.188476 -1.005960 -0.838773
v -0.112212 -1.005960 -0.838773
v -0.188476 -0.948421 -0.838773
v -0.112212 -0.948421 -0.838773
v -0.416858 -0.948421 -0.838773
v -0.416858 -1.005960 -0.838773
v 0.446947 -1.005960 -0.838773
v 0.446947 -0.948421 -0.838773
v 0.455341 -0.955916 -0.848024
v 0.455341 -0.998465 -0.848024
v 0.455341 -0.998465 -0.880538
v 0.455341 -0.955916 -0.880538
v -0.416858 -1.005960 -0.889789
v -0.416858 -0.948421 -0.889789
v 0.446947 -0.948421 -0.889789
v 0.446947 -1.005960 -0.889789
v -0.416858 -1.005960 -0.117272
v -0.416858 -0.948421 -0.117272
v -0.416858 -1.005960 -0.046252
v -0.416629 -1.007874 -0.046416
v -0.416629 -1.007874 -0.119635
v -0.416858 -0.948421 -0.046252
v -0.416629 -0.946507 -0.119635
v -0.416629 -0.946507 -0.046416
v -0.416858 0.911072 -0.117272
v -0.416858 0.911072 -0.046252
v 0.446947 0.911072 -0.046252
v 0.446947 0.911072 -0.117272
v -0.112212 0.911072 -0.117272
v -0.188476 0.911072 -0.117272
v 0.459201 0.905238 -0.110071
v 0.459201 0.905238 -0.053454
v 0.459201 0.859368 -0.053454
v 0.459201 0.859368 -0.110071
v 0.446947 0.853534 -0.117272
v 0.446947 0.853534 -0.046252
v -0.416858 0.853534 -0.046252
v -0.416858 0.853534 -0.117272
v -0.188476 0.853534 -0.117272
v -0.112212 0.853534 -0.117272
v -0.479795 0.912987 -0.119635
v -0.479795 0.851619 -0.119635
v -0.479795 0.851619 -0.046417
v -0.479795 0.912987 -0.046417
v -0.188476 0.853534 -0.838773
v -0.112212 0.853534 -0.838773
v -0.112212 0.911072 -0.838773
v -0.188476 0.911072 -0.838773
v -0.416858 0.911072 -0.838773
v -0.416858 0.853534 -0.838773
v 0.446947 0.853534 -0.838773
v 0.446947 0.911072 -0.838773
v 0.455341 0.903577 -0.848024
v 0.455341 0.861028 -0.848024
v 0.455341 0.861028 -0.880538
v 0.455341 0.903577 -0.880538
v -0.416858 0.853534 -0.889789
v -0.416858 0.911072 -0.889789
v 0.446947 0.911072 -0.889789
v 0.446947 0.853534 -0.889789
v -0.416858 0.853534 -0.117272
v -0.416858 0.853534 -0.046252
v -0.416629 0.851619 -0.046417
v -0.416629 0.851619 -0.119635
v -0.416629 0.912987 -0.119635
v -0.416629 0.912987 -0.046417
v -0.416858 0.911072 -0.046252
v -0.416858 0.911072 -0.117272
vt 0.336357 0.641211
vt 0.336357 0.666604
vt 0.645203 0.666604
vt 0.645203 0.641211
vt 0.445281 0.641211
vt 0.418014 0.641211
vt 0.921307 0.838734
vt 0.869551 0.838724
vt 0.869547 0.786967
vt 0.921303 0.786978
vt 0.321894 0.640261
vt 0.321894 0.665997
vt 0.008873 0.665997
vt 0.008873 0.640261
vt 0.091633 0.640261
vt 0.119269 0.640261
vt 0.392316 0.628675
vt 0.392316 0.593897
vt 0.142731 0.593897
vt 0.142731 0.628675
vt 0.892348 0.896704
vt 0.851529 0.891371
vt 0.803765 0.845467
vt 0.951756 0.845467
vt 0.988299 0.020103
vt 0.988299 0.488149
vt 0.676227 0.488149
vt 0.676227 0.020103
vt 0.786488 0.713416
vt 0.786489 0.999738
vt 0.000210 0.999737
vt 0.000209 0.713416
vt 0.003201 0.697168
vt 0.004858 0.697979
vt 0.954963 0.697466
vt 0.956081 0.696297
vt 0.953933 0.688086
vt 0.955377 0.688942
vt 0.004161 0.688270
vt 0.001910 0.689430
vt 0.927965 0.845380
vt 0.862906 0.845380
vt 0.927948 0.780322
vt 0.862889 0.780322
vt 0.223485 0.576094
vt 0.223485 0.553281
vt 0.313113 0.553281
vt 0.313113 0.576094
vt 0.091633 0.378807
vt 0.119269 0.378807
vt 0.000000 0.000000
vt 0.000000 0.000000
vt 0.000000 0.000000
vt 0.000000 0.000000
vt 0.445281 0.379046
vt 0.418014 0.379046
vt 0.462458 0.613978
vt 0.462458 0.581789
vt 0.789471 0.581789
vt 0.789471 0.613978
vt 0.137133 0.532942
vt 0.137133 0.507055
vt 0.400126 0.507055
vt 0.400126 0.532942
vt 0.221862 0.466824
vt 0.312806 0.466824
vt 0.312806 0.489972
vt 0.221862 0.489972
vt 0.141565 0.410213
vt 0.395034 0.410214
vt 0.395034 0.442405
vt 0.141565 0.442404
vt 0.984550 0.790114
vt 0.936534 0.790110
vt 0.936542 0.760383
vt 0.984556 0.760379
vt 0.817557 0.511687
vt 0.457576 0.511687
vt 0.457576 0.530390
vt 0.817557 0.530390
vt 0.008873 0.378807
vt 0.008873 0.360321
vt 0.321894 0.360321
vt 0.321894 0.378807
vt 0.645203 0.379046
vt 0.645203 0.360806
vt 0.336357 0.360806
vt 0.336357 0.379046
vt 0.993036 0.798595
vt 0.928052 0.798596
vt 0.928056 0.751898
vt 0.993039 0.751898
vt 0.000000 0.000000
vt 0.000000 0.000000
vt 0.000000 0.000000
vt 0.000000 0.000000
vt 0.848869 0.896989
vt 0.797715 0.851916
vt 0.799333 0.850318
vt 0.849803 0.895011
vt 0.000000 0.000000
vt 0.000000 0.000000
vt 0.000000 0.000000
vt 0.000000 0.000000
vt 0.893922 0.900742
vt 0.956573 0.851753
vt 0.958344 0.853766
vt 0.894450 0.902539
vt 0.317624 0.314793
vt 0.317624 0.340459
vt 0.005447 0.340459
vt 0.005447 0.314793
vt 0.207526 0.314793
vt 0.235087 0.314793
vt 0.856154 0.786972
vt 0.856117 0.838714
vt 0.804363 0.838734
vt 0.804395 0.786964
vt 0.643086 0.307452
vt 0.643086 0.333601
vt 0.325047 0.333601
vt 0.325047 0.307452
vt 0.409134 0.307452
vt 0.437213 0.307452
vt 0.387955 0.272954
vt 0.387955 0.293184
vt 0.255354 0.293184
vt 0.255354 0.272954
vt 0.884057 0.954950
vt 0.843850 0.945633
vt 0.803376 0.902626
vt 0.952110 0.902626
vt 0.862802 0.780316
vt 0.862771 0.845370
vt 0.797741 0.780316
vt 0.797715 0.845380
vt 0.014458 0.304286
vt 0.014458 0.283633
vt 0.095598 0.283633
vt 0.095598 0.304286
vt 0.409134 0.041808
vt 0.437213 0.041808
vt 0.207526 0.054045
vt 0.235087 0.054045
vt 0.015461 0.095767
vt 0.033032 0.095767
vt 0.033032 0.274273
vt 0.015461 0.274273
vt 0.310007 0.096313
vt 0.325850 0.096313
vt 0.325850 0.257264
vt 0.310007 0.257264
vt 0.094476 0.086105
vt 0.012247 0.086105
vt 0.012247 0.065175
vt 0.094476 0.065175
vt 0.246453 0.067516
vt 0.399257 0.067516
vt 0.399257 0.085315
vt 0.246453 0.085315
vt 0.984550 0.836899
vt 0.936534 0.836895
vt 0.936542 0.807167
vt 0.984557 0.807164
vt 0.488354 0.055838
vt 0.488354 0.287824
vt 0.469318 0.287824
vt 0.469318 0.055838
vt 0.325047 0.041808
vt 0.325047 0.023024
vt 0.643086 0.023024
vt 0.643086 0.041808
vt 0.005447 0.054045
vt 0.005447 0.035608
vt 0.317624 0.035608
vt 0.317624 0.054045
vt 0.993037 0.845380
vt 0.928052 0.845380
vt 0.928056 0.798682
vt 0.993039 0.798682
vt 0.841181 0.950504
vt 0.797715 0.908106
vt 0.799226 0.906758
vt 0.842005 0.949003
vt 0.885435 0.959236
vt 0.957003 0.909750
vt 0.958820 0.912059
vt 0.886001 0.961626
vt 0.946241 0.694209
vt 0.012911 0.695532
vt 0.011713 0.691707
vt 0.945510 0.690686
vt 0.020011 0.702173
vt 0.939443 0.702035
vt 0.019651 0.683862
vt 0.938943 0.683862
vn -0.0001 0.8944 -0.4472
vn -0.0000 1.0000 -0.0000
vn 0.3931 0.7906 0.4696
vn 0.3070 0.8549 -0.4183
vn 0.4850 0.7276 -0.4851
vn -0.3015 0.9045 -0.3015
vn 0.8705 0.2283 -0.4359
vn 0.7636 0.5826 0.2782
vn 0.8705 -0.2283 0.4359
vn 0.7636 -0.5826 -0.2782
vn 0.2282 -0.7753 -0.5889
vn 0.4221 -0.8666 0.2663
vn 0.0000 -0.5000 0.5000
vn -0.0000 -0.8944 -0.4472
vn -0.4851 -0.7276 -0.4851
vn 0.3015 -0.9046 -0.3015
vn -0.6667 0.6666 -0.3334
vn -0.4082 -0.4083 -0.8165
vn -0.7071 -0.7071 0.0000
vn -0.7071 0.7071 0.0000
vn 0.0679 0.0654 -0.9955
vn 0.1705 -0.0411 -0.9845
vn -0.0679 -0.0654 -0.9955
vn -0.1705 0.0411 -0.9845
vn 0.1363 0.0328 0.9901
vn -0.0850 0.0819 0.9930
vn -0.1363 -0.0328 0.9901
vn 0.0850 -0.0819 0.9930
vn 0.6530 0.2840 -0.7021
vn 0.3372 0.5866 0.7363
vn 0.6530 -0.2840 0.7021
vn 0.3372 -0.5866 -0.7363
vn -0.3372 -0.5866 0.7363
vn -0.6530 -0.2840 -0.7021
vn -0.6530 0.2840 0.7021
vn -0.3372 0.5866 -0.7363
vn -0.1622 -0.9733 0.1622
vn 0.6666 -0.6667 -0.3333
vn -0.6666 0.6667 -0.3333
vn 0.1623 0.9733 0.1622
vn -0.1623 -0.9733 0.1622
vn 0.1622 0.9733 0.1622
vn -0.6667 0.6666 -0.3333
vn 0.0000 0.7070 0.7072
vn 0.0000 -0.7071 0.7071
vn 0.6667 -0.6666 -0.3333
vn 0.4264 -0.7183 0.5497
vn 0.5921 0.4814 0.6463
vn 0.9279 0.3399 0.1531
vn 0.8986 -0.2130 0.3837
vn 0.9279 -0.3399 -0.1531
vn 0.8986 0.2130 -0.3837
vn 0.0000 -0.7071 -0.7071
vn 0.0000 0.8944 -0.4472
vn 0.4264 0.7184 -0.5497
vn 0.5112 -0.6537 -0.5580
vn 0.9963 0.0794 0.0322
vn 0.6885 -0.0430 0.4942
vn 0.9929 0.1188 -0.0000
vn 0.9336 -0.3584 0.0000
vn 0.8246 -0.5199 -0.2230
vn 0.4689 -0.0561 0.4992
vn 0.8239 0.2107 -0.5261
vn 0.4668 0.8844 0.0000
vn 0.3930 0.7906 0.4696
vn 0.3069 0.8549 -0.4183
vn 0.4851 0.7276 -0.4851
vn 0.8705 0.2283 -0.4360
vn 0.7636 0.5827 0.2782
vn 0.8706 -0.2282 0.4359
vn 0.7636 -0.5827 -0.2782
vn 0.4220 -0.8666 0.2663
vn 0.0000 -1.0000 0.0000
vn -0.0000 -0.8943 -0.4474
vn -0.4339 0.4542 -0.7781
vn 0.1960 0.6783 0.7081
vn -0.4084 -0.4081 -0.8165
vn -0.1562 -0.9370 0.3123
vn -0.2349 0.2351 -0.9432
vn 0.1562 0.9370 0.3123
vn 0.1007 -0.1007 0.9898
vn 0.4264 -0.7184 0.5497
vn 0.9929 0.1187 0.0000
vn 0.9929 -0.1188 0.0000
vn 0.9971 -0.0397 0.0645
usemtl material_0.010
s 1
f 1/1/1 2/2/2 3/3/3
f 1/1/1 3/3/3 4/4/4
f 1/1/1 4/4/4 5/5/5
f 1/1/1 5/5/5 6/6/6
f 7/7/7 8/8/8 9/9/9
f 7/7/7 9/9/9 10/10/10
f 11/11/11 12/12/12 13/13/13
f 11/11/11 13/13/13 14/14/14
f 11/11/11 14/14/14 15/15/15
f 11/11/11 15/15/15 16/16/16
f 5/17/5 4/18/4 11/19/11
f 5/17/5 11/19/11 16/20/16
f 17/21/17 18/22/18 19/23/19
f 17/21/17 19/23/19 20/24/20
f 21/25/21 22/26/22 23/27/23
f 21/25/21 23/27/23 24/28/24
f 25/29/25 26/30/26 27/31/27
f 25/29/25 27/31/27 28/32/28
f 29/33/29 30/34/30 31/35/31
f 29/33/29 31/35/31 32/36/32
f 32/36/32 31/35/31 33/37/33
f 32/36/32 33/37/33 34/38/34
f 34/38/34 33/37/33 35/39/35
f 34/38/34 35/39/35 36/40/36
f 30/34/30 29/33/29 36/40/36
f 30/34/30 36/40/36 35/39/35
f 8/8/8 7/7/7 4/41/4
f 8/8/8 4/41/4 3/42/3
f 7/7/7 10/10/10 11/43/11
f 7/7/7 11/43/11 4/41/4
f 9/9/9 8/8/8 3/42/3
f 9/9/9 3/42/3 12/44/12
f 10/10/10 9/9/9 12/44/12
f 10/10/10 12/44/12 11/43/11
f 1/45/1 6/46/6 15/47/15
f 1/45/1 15/47/15 14/48/14
f 16/16/16 15/15/15 37/49/37
f 16/16/16 37/49/37 38/50/38
f 39/51/39 40/52/40 38/53/38
f 39/51/39 38/53/38 37/54/41
f 6/6/6 5/5/5 40/55/42
f 6/6/6 40/55/42 39/56/39
f 15/57/15 6/58/6 39/59/39
f 15/57/15 39/59/39 37/60/37
f 5/61/5 16/62/16 38/63/38
f 5/61/5 38/63/38 40/64/42
f 37/65/37 39/66/43 41/67/44
f 37/65/37 41/67/44 42/68/45
f 40/69/42 38/70/46 43/71/47
f 40/69/42 43/71/47 44/72/48
f 45/73/49 46/74/50 47/75/51
f 45/73/49 47/75/51 48/76/52
f 49/77/53 50/78/54 51/79/55
f 49/77/53 51/79/55 52/80/56
f 37/49/37 42/81/45 49/82/53
f 37/49/37 49/82/53 52/83/56
f 37/49/37 52/83/56 43/84/47
f 37/49/37 43/84/47 38/50/46
f 40/55/42 44/85/48 51/86/55
f 40/55/42 51/86/55 50/87/54
f 40/55/42 50/87/54 41/88/44
f 40/55/42 41/88/44 39/56/43
f 46/74/50 45/73/49 44/89/48
f 46/74/50 44/89/48 43/90/47
f 48/76/52 47/75/51 52/91/56
f 48/76/52 52/91/56 51/92/55
f 45/73/49 48/76/52 51/92/55
f 45/73/49 51/92/55 44/89/48
f 47/75/51 46/74/50 43/90/47
f 47/75/51 43/90/47 52/91/56
f 1/93/1 14/94/14 53/95/57
f 1/93/1 53/95/57 54/96/58
f 53/97/57 55/98/59 56/99/60
f 53/97/57 56/99/60 57/100/61
f 2/101/2 1/93/1 54/96/58
f 2/101/2 54/96/58 58/102/62
f 14/94/14 13/103/13 55/104/59
f 14/94/14 55/104/59 53/95/57
f 59/105/63 57/100/61 18/22/18
f 59/105/63 18/22/18 17/21/17
f 60/106/64 59/105/63 17/21/17
f 60/106/64 17/21/17 20/24/20
f 57/100/61 56/99/60 19/23/19
f 57/100/61 19/23/19 18/22/18
f 58/107/62 54/108/58 59/105/63
f 58/107/62 59/105/63 60/106/64
f 54/108/58 53/97/57 57/100/61
f 54/108/58 57/100/61 59/105/63
f 61/109/54 62/110/2 63/111/65
f 61/109/54 63/111/65 64/112/66
f 61/109/54 64/112/66 65/113/67
f 61/109/54 65/113/67 66/114/6
f 67/115/68 68/116/69 69/117/70
f 67/115/68 69/117/70 70/118/71
f 71/119/11 72/120/72 73/121/73
f 71/119/11 73/121/73 74/122/74
f 71/119/11 74/122/74 75/123/75
f 71/119/11 75/123/75 76/124/76
f 65/125/67 64/126/66 71/127/11
f 65/125/67 71/127/11 76/128/76
f 77/129/17 78/130/77 79/131/19
f 77/129/17 79/131/19 80/132/20
f 68/116/69 67/115/68 64/133/66
f 68/116/69 64/133/66 63/134/65
f 67/115/68 70/118/71 71/135/11
f 67/115/68 71/135/11 64/133/66
f 69/117/70 68/116/69 63/134/65
f 69/117/70 63/134/65 72/136/72
f 70/118/71 69/117/70 72/136/72
f 70/118/71 72/136/72 71/135/11
f 61/137/54 66/138/6 75/139/75
f 61/137/54 75/139/75 74/140/74
f 76/124/76 75/123/75 81/141/78
f 76/124/76 81/141/78 82/142/79
f 66/114/6 65/113/67 83/143/80
f 66/114/6 83/143/80 84/144/81
f 75/145/75 66/146/6 84/147/81
f 75/145/75 84/147/81 81/148/78
f 65/149/67 76/150/76 82/151/79
f 65/149/67 82/151/79 83/152/80
f 81/153/78 84/154/81 85/155/44
f 81/153/78 85/155/44 86/156/45
f 83/157/80 82/158/79 87/159/82
f 83/157/80 87/159/82 88/160/48
f 89/161/49 90/162/50 91/163/51
f 89/161/49 91/163/51 92/164/52
f 93/165/53 94/166/54 95/167/55
f 93/165/53 95/167/55 96/168/56
f 81/141/78 86/169/45 93/170/53
f 81/141/78 93/170/53 96/171/56
f 81/141/78 96/171/56 87/172/82
f 81/141/78 87/172/82 82/142/79
f 83/143/80 88/173/48 95/174/55
f 83/143/80 95/174/55 94/175/54
f 83/143/80 94/175/54 85/176/44
f 83/143/80 85/176/44 84/144/81
f 90/162/50 89/161/49 88/177/48
f 90/162/50 88/177/48 87/178/82
f 92/164/52 91/163/51 96/179/56
f 92/164/52 96/179/56 95/180/55
f 89/161/49 92/164/52 95/180/55
f 89/161/49 95/180/55 88/177/48
f 91/163/51 90/162/50 87/178/82
f 91/163/51 87/178/82 96/179/56
f 97/181/57 98/182/83 99/183/60
f 97/181/57 99/183/60 100/184/61
f 101/185/63 100/184/61 78/130/77
f 101/185/63 78/130/77 77/129/17
f 102/186/64 101/185/63 77/129/17
f 102/186/64 77/129/17 80/132/20
f 100/184/61 99/183/60 79/131/19
f 100/184/61 79/131/19 78/130/77
f 103/187/84 104/188/85 101/185/63
f 103/187/84 101/185/63 102/186/64
f 104/188/85 97/181/57 100/184/61
f 104/188/85 100/184/61 101/185/63
f 29/33/29 32/36/32 22/189/22
f 29/33/29 22/189/22 21/190/21
f 36/40/36 29/33/29 21/190/21
f 36/40/36 21/190/21 24/191/24
f 32/36/32 34/38/34 23/192/23
f 32/36/32 23/192/23 22/189/22
f 34/38/34 36/40/36 24/191/24
f 34/38/34 24/191/24 23/192/23
f 31/35/31 30/34/30 25/193/25
f 31/35/31 25/193/25 28/194/28
f 30/34/30 35/39/35 26/195/26
f 30/34/30 26/195/26 25/193/25
f 33/37/33 31/35/31 28/194/28
f 33/37/33 28/194/28 27/196/27
f 35/39/35 33/37/33 27/196/27
f 35/39/35 27/196/27 26/195/26
